<?xml version="1.0" standalone="no"?>
<!DOCTYPE svg PUBLIC "-//W3C//DTD SVG 1.1//EN" "http://www.w3.org/Graphics/SVG/1.1/DTD/svg11.dtd" >
<!--
2013-9-30: Created.
-->
<svg>
<metadata>
Created by iconfont
</metadata>
<defs>

<font id="iconfont" horiz-adv-x="1024" >
  <font-face
    font-family="iconfont"
    font-weight="500"
    font-stretch="normal"
    units-per-em="1024"
    ascent="896"
    descent="-128"
  />
    <missing-glyph />
    
    <glyph glyph-name="weibiaoti1" unicode="&#58880;" d="M709.818182 812l0-279.272727 290.909091 0L709.818182 812zM686.545455 812 34.909091 812C28.485818 812 23.272727 806.798545 23.272727 800.363636l0-1000.727273c0-6.423273 5.213091-11.636364 11.636364-11.636364l954.181818 0c6.434909 0 11.636364 5.213091 11.636364 11.636364L1000.727273 509.454545 686.545455 509.454545 686.545455 812zM512 660.727273c-19.281455 0-34.909091 15.639273-34.909091 34.909091 0 19.281455 15.627636 34.909091 34.909091 34.909091 19.269818 0 34.909091-15.627636 34.909091-34.909091C546.909091 676.366545 531.269818 660.727273 512 660.727273z"  horiz-adv-x="1024" />

    
    <glyph glyph-name="gerenzhongxin" unicode="&#58900;" d="M512 810.49993C230.058667 810.49993 1.50007 581.941333 1.50007 300S230.058667-210.49993 512-210.49993 1022.49993 18.058667 1022.49993 300 793.941333 810.49993 512 810.49993zM200.344702-7.514386C202.186105 129.06386 291.84 244.416561 415.420632 284.657965 350.24393 319.285333 305.852632 387.857404 305.852632 466.813193c0 113.852632 92.294737 206.147368 206.147368 206.147368s206.147368-92.294737 206.147368-206.147368c0-78.955789-44.391298-147.52786-109.568-182.155228 123.589614-40.241404 213.243509-155.594105 215.07593-292.163368L200.344702-7.505404z"  horiz-adv-x="1024" />

    
    <glyph glyph-name="quanxianguanli" unicode="&#58892;" d="M985.6 41.6c-41.6 35.2-89.6 57.6-140.8 76.8-44.8 16-89.6 32-131.2 51.2-44.8 19.2-54.4 60.8-32 105.6 6.4 12.8 16 25.6 28.8 35.2 35.2 28.8 54.4 64 67.2 105.6 6.4 25.6 19.2 44.8 41.6 60.8 38.4 25.6 44.8 64 41.6 105.6 0 16-6.4 28.8-22.4 32-25.6 6.4-25.6 25.6-28.8 41.6-3.2 12.8-3.2 22.4-6.4 35.2-19.2 112-115.2 198.4-230.4 201.6-124.8 3.2-227.2-76.8-249.6-195.2L313.6 640c3.2-6.4 0-16-12.8-19.2-22.4-6.4-28.8-25.6-32-44.8-3.2-44.8 19.2-83.2 64-96 108.8-35.2 160-115.2 172.8-227.2 9.6-108.8 3.2-214.4 6.4-323.2 3.2-38.4 16-54.4 54.4-54.4h358.4c41.6 0 83.2 25.6 92.8 54.4 16 38.4 3.2 83.2-32 112zM380.8 163.2c-12.8 0-19.2 3.2-19.2 19.2V256c-6.4 80-51.2 131.2-118.4 137.6-86.4 6.4-144-32-163.2-115.2-6.4-28.8-6.4-57.6-3.2-86.4 3.2-25.6-6.4-32-28.8-28.8-38.4 0-48-9.6-48-44.8v-201.6c0-35.2 6.4-41.6 41.6-41.6h345.6c41.6 0 48 6.4 48 48v188.8c0 44.8-3.2 51.2-54.4 51.2z m-76.8 3.2c-28.8-9.6-60.8 0-83.2-3.2H192c-67.2 0-67.2 0-67.2 67.2 0 28.8 6.4 54.4 22.4 76.8 35.2 48 115.2 38.4 140.8-16 22.4-38.4 16-80 16-124.8z"  horiz-adv-x="1024" />

    
    <glyph glyph-name="mima" unicode="&#58915;" d="M832 512h-640c-35.346 0-64-28.654-64-64v-448c0-35.346 28.654-64 64-64h640c35.346 0 64 28.654 64 64v448c0 35.346-28.654 64-64 64zM832 0h-640v448h640v-448zM512 768c141.385 0 256-114.615 256-256h64c0 176.731-143.269 320-320 320s-320-143.269-320-320h64c0 141.385 114.615 256 256 256zM448 256c0-35.346 28.654-64 64-64s64 28.654 64 64c0 35.346-28.654 64-64 64-35.346 0-64-28.654-64-64z"  horiz-adv-x="1024" />

    
    <glyph glyph-name="cheweiguanli" unicode="&#58970;" d="M511.842462 699.864615h-159.901539c-20.086154 0-36.470154-14.572308-36.470154-32.68923 0-18.116923 16.384-32.689231 36.391385-32.689231h159.980308c33.004308 0 64.039385-11.500308 87.433846-32.452923 23.315692-21.031385 36.233846-48.836923 36.233846-78.454154 0-61.046154-55.532308-110.828308-123.667692-110.828308h-159.901539c-20.086154 0-36.470154-14.651077-36.470154-32.689231v-237.568c0-18.116923 16.384-32.689231 36.391385-32.68923s36.391385 14.651077 36.548923 32.68923V347.214769H512c108.307692 0 196.529231 79.005538 196.529231 176.285539-0.157538 97.358769-88.300308 176.443077-196.686769 176.443077zM682.299077 895.842462H341.700923a340.755692 340.755692 0 0 1-340.519385-341.07077V213.858462a340.755692 340.755692 0 0 1 340.519385-340.992h340.598154a340.755692 340.755692 0 0 1 340.519385 340.992v341.070769A340.834462 340.834462 0 0 1 682.299077 895.763692z m283.726769-662.843077a302.946462 302.946462 0 0 0-302.710154-303.104H360.605538A302.788923 302.788923 0 0 0 57.974154 232.920615V535.867077A302.946462 302.946462 0 0 0 360.763077 838.971077h302.710154a302.867692 302.867692 0 0 0 302.631384-303.104v-302.946462zM328.467692 460.8a18.353231 18.353231 0 0 1 12.288 5.435077l47.025231 42.220308a20.637538 20.637538 0 0 1 7.010462 15.28123 20.637538 20.637538 0 0 1-7.089231 15.281231l-46.946462 42.299077a18.116923 18.116923 0 0 1-12.288 5.277539c-6.459077 0-13.075692-4.726154-13.075692-14.808616v-96.098461c0-10.397538 6.459077-14.887385 13.075692-14.887385z"  horiz-adv-x="1024" />

    
    <glyph glyph-name="jia" unicode="&#58898;" d="M882.2 540.4c-20.2 47.8-49.2 90.8-86.1 127.7-36.9 36.9-79.9 65.9-127.7 86.1-49.5 21-102.2 31.6-156.4 31.6s-106.9-10.6-156.4-31.6c-47.9-20.2-90.8-49.2-127.7-86.1-36.9-36.9-65.9-79.9-86.1-127.7-21-49.6-31.6-102.2-31.6-156.4s10.6-106.9 31.6-156.4c20.2-47.8 49.2-90.8 86.1-127.7 36.9-36.9 79.9-65.9 127.7-86.1 49.5-21 102.2-31.6 156.4-31.6s106.9 10.6 156.4 31.6c47.9 20.2 90.8 49.2 127.7 86.1 36.9 36.9 65.9 79.9 86.1 127.7 21 49.5 31.6 102.2 31.6 156.4s-10.6 106.9-31.6 156.4zM512 18.2c-201.7 0-365.8 164.1-365.8 365.8 0 201.7 164.1 365.8 365.8 365.8 201.7 0 365.8-164.1 365.8-365.8 0-201.7-164.1-365.8-365.8-365.8zM752.8 383.8c0-9.9-8.1-18-18-18H530.2v-204.6c0-9.9-8.1-18-18-18s-18 8.1-18 18V365.8H289.6c-9.9 0-18 8.1-18 18s8.1 18 18 18h204.6V606.4c0 9.9 8.1 18 18 18s18-8.1 18-18v-204.6h204.6c9.9 0 18-8 18-18z"  horiz-adv-x="1024" />

    
    <glyph glyph-name="jian" unicode="&#58899;" d="M511.8-17.6c-54.2 0-106.9 10.6-156.4 31.6-47.9 20.2-90.8 49.2-127.7 86.1-36.9 36.9-65.9 79.9-86.1 127.7-21 49.6-31.6 102.2-31.6 156.4s10.6 106.9 31.6 156.4c20.2 47.9 49.2 90.8 86.1 127.7s79.9 65.9 127.7 86.1c49.6 21 102.2 31.6 156.4 31.6s106.9-10.6 156.4-31.6c47.9-20.2 90.8-49.2 127.7-86.1 36.9-36.9 65.9-79.9 86.1-127.7 21-49.6 31.6-102.2 31.6-156.4S903 277.3 882.1 227.8c-20.2-47.9-49.2-90.8-86.1-127.7-36.9-36.9-79.9-65.9-127.7-86.1-49.6-21-102.2-31.6-156.5-31.6z m0 767.6C310.1 750 146 585.9 146 384.2s164.1-365.8 365.8-365.8 365.8 164.1 365.8 365.8S713.5 750 511.8 750zM734.6 366H289.4c-9.9 0-18 8.1-18 18s8.1 18 18 18h445.2c9.9 0 18-8.1 18-18s-8.1-18-18-18z"  horiz-adv-x="1024" />

    
    <glyph glyph-name="chewei" unicode="&#58918;" d="M313.911466 338.547329a51.337735 51.337735 0 1 1 51.337735-51.337735 51.337735 51.337735 0 0 1-51.337735 51.337735z m31.679139 105.805819h333.570062c24.541941 0 53.967228 19.408168 55.845438 43.824896l-8.389337 33.557348-22.91416 61.730496c-2.128638 11.519687-6.761555 13.898753-14.14918 23.540229H335.6987c-7.387625-9.391049-12.396185-11.519687-14.650037-23.665443l-0.375642-1.377354-22.538517-60.102714-8.389338-33.557348c1.752996-24.541941 31.303497-43.95011 55.845439-43.95011zM853.333323 896H170.666665A170.6291 170.6291 0 0 1 0 725.333335v-682.666658a170.6291 170.6291 0 0 1 170.666665-170.666664h682.666658a170.6291 170.6291 0 0 1 170.666664 170.666664V725.333335A170.704229 170.704229 0 0 1 853.333323 896z m22.91416-429.233548a19.020005 19.020005 0 0 0-19.032526-19.032526l-25.293226-4.257276a120.58107 120.58107 0 0 0 12.897041-55.59501l9.516263-109.437025a84.882562 84.882562 0 0 0-0.62607-9.641477 32.881193 32.881193 0 0 0 0.62607-6.135485v-131.599901a33.882905 33.882905 0 0 0-33.932991-33.93299H768.813882a33.882905 33.882905 0 0 0-33.932991 33.93299v42.322328H289.745166v-42.322328a33.882905 33.882905 0 0 0-33.93299-33.93299H204.098799a33.882905 33.882905 0 0 0-33.93299 33.93299V262.667653a32.881193 32.881193 0 0 0 0.62607 6.135485 84.907605 84.907605 0 0 0-0.62607 9.641477l9.516263 109.437025c0 21.286378 4.632918 39.442406 12.771826 55.469796l-25.794081 4.38249a19.020005 19.020005 0 0 0-19.032526 19.032526v16.528246a19.020005 19.020005 0 0 0 19.032526 19.032526h68.241623a18.231157 18.231157 0 0 0 9.391049-2.629494l30.802641 93.033993c8.389337 43.95011 40.19369 78.133528 92.533136 78.133528h288.993883c45.577891 0 82.766446-25.418439 92.533137-78.133528l30.80264-92.658351a17.792908 17.792908 0 0 0 8.890193 2.379066h68.241624a19.020005 19.020005 0 0 0 19.032526-19.032526v-16.65346zM710.714591 338.547329a51.337735 51.337735 0 1 1 51.337735-51.337735 51.337735 51.337735 0 0 1-51.337735 51.337735z"  horiz-adv-x="1024" />

    
    <glyph glyph-name="xiangmuguanli" unicode="&#59031;" d="M0 895.969506h250.019386V-127.984753H0zM184.350799 33.099209a61.429937 61.429937 0 1 0-61.399443 61.109752 61.246974 61.246974 0 0 0 61.399443-61.109752zM171.314662 19.620911a50.23868 50.23868 0 1 0-34.930749 61.628147 50.055717 50.055717 0 0 0 34.930749-61.628147M51.549917 831.276723h136.993791v-645.265913H51.549917zM73.49027 403.63044h94.759756v-12.441506H73.49027zM73.49027 344.182606h94.759756v-12.441506H73.49027zM73.49027 452.695106h94.759756v-12.441506H73.49027zM73.49027 514.856896h94.759756v-12.441506H73.49027zM73.49027 576.591772h94.759756v-12.441506H73.49027zM73.49027 631.450276h94.759756v-12.441506H73.49027zM75.53336 795.461652h89.438573v-111.500901H75.53336zM75.53336 285.710576h94.759757v-55.758074H75.53336zM249.028335 895.969506h239.392266V-127.984753H249.028335zM430.268757 33.099209a61.445184 61.445184 0 1 0-61.445184 61.109752 61.277468 61.277468 0 0 0 61.445184-61.109752M419.062253 33.099209a50.314915 50.314915 0 1 0-50.223433 50.009976 50.070964 50.070964 0 0 0 50.223433-50.009976M298.977323 831.276723h141.781332v-645.265913h-141.781332zM321.420825 795.461652h94.759756v-111.500901h-94.759756zM321.420825 285.710576h94.759756v-55.758074h-94.759756zM488.420601 896h250.309078v-1024H488.420601zM676.156222 33.099209a61.445184 61.445184 0 1 0-61.399444 61.109752 61.292715 61.292715 0 0 0 61.445184-61.109752M664.964965 33.099209a50.314915 50.314915 0 1 0-50.314915 50.009976 50.070964 50.070964 0 0 0 50.314915-50.009976M538.232367 831.276723h148.185048v-645.265913h-148.185048zM567.308289 795.461652h94.759756v-111.500901h-94.759756zM567.308289 285.710576h94.759756v-55.758074h-94.759756zM737.662393 895.969506h245.887465V-127.984753H737.662393zM983.565105 895.969506H1335.632287V-127.984753H983.565105zM922.043686 33.099209a61.445184 61.445184 0 1 0-61.399443 61.109752 61.262221 61.262221 0 0 0 61.399443-61.109752M910.852429 33.099209a50.23868 50.23868 0 1 0-50.223433 50.009976 50.04047 50.04047 0 0 0 50.223433-50.009976M931.99994 207.81394a13.72225 13.72225 0 0 0-13.722249-13.72225h-115.266896a13.72225 13.72225 0 0 0-13.72225 13.72225v609.877756a13.72225 13.72225 0 0 0 13.72225 13.615521h115.160167a13.72225 13.72225 0 0 0 13.72225-13.615521zM810.375069 797.352273h97.976861v-113.406769H810.375069zM813.226247 285.710576h94.729263v-55.758074h-94.729263zM321.34459 406.847545h94.759756v-12.441506h-94.759756zM321.34459 347.414958h94.759756v-12.441506h-94.759756zM321.34459 455.927458h94.759756v-12.441506h-94.759756zM321.34459 518.089248h94.759756v-12.441506h-94.759756zM321.34459 579.824124h94.759756v-12.441506h-94.759756zM321.34459 634.682628h94.759756v-12.441506h-94.759756zM566.881375 408.082548h94.759756v-12.441506H566.881375zM566.881375 348.649961h94.759756v-12.441507H566.881375zM566.881375 457.16246h94.759756v-12.441506H566.881375zM566.881375 519.324251h94.759756v-12.441507H566.881375zM566.881375 581.059127h94.759756v-12.441507H566.881375zM566.881375 635.917631h94.759756v-12.441506H566.881375zM813.226247 408.082548h94.759757v-12.441506h-94.759757zM813.226247 348.649961h94.759757v-12.441507h-94.759757zM813.226247 457.16246h94.759757v-12.441506h-94.759757zM813.226247 519.324251h94.759757v-12.441507h-94.759757zM813.226247 581.059127h94.759757v-12.441507h-94.759757zM813.226247 635.917631h94.759757v-12.441506h-94.759757z"  horiz-adv-x="1335" />

    
    <glyph glyph-name="Shape" unicode="&#58910;" d="M480.767654 307.499145a42.7089 42.7089 0 0 1-42.928295 42.928295 42.7089 42.7089 0 0 1-30.422778-12.578648l-317.976538-317.903407V306.036512a44.756587 44.756587 0 0 1-89.440043 0v-389.279925c0-1.462634 0.292527-2.559609 0.585053-3.290925v-0.146264c0-1.096975 0.292527-2.120819 0.43879-2.705872l0.146264-0.292526v-0.438791a44.610324 44.610324 0 0 1 7.825089-19.014236l0.438791-1.462634c0.43879-1.75516 1.096975-4.387901 3.290925-6.728114 2.852135-2.925267 6.216193-3.802847 8.775801-4.387901l2.925268-0.87758c1.974555-1.023843 3.949111-1.682029 5.923666-2.413345 4.314769-1.462634 8.995196-2.998399 14.40694-2.998399a35.103206 35.103206 0 0 1 3.729716 0.292527h385.477077a44.610324 44.610324 0 1 1 0 89.220647h-281.556962L468.262137 277.149499a42.7089 42.7089 0 0 1 12.578649 30.349646z m542.637054 546.80556V854.450968c0 1.096975-0.292527 2.19395-0.43879 2.705872l-0.146263 0.292527V857.815025a44.610324 44.610324 0 0 1-7.82509 19.014237l-0.43879 1.462633a14.406941 14.406941 0 0 1-3.290925 6.728115 16.162101 16.162101 0 0 1-8.775802 4.387901 23.840927 23.840927 0 0 0-2.925267 0.87758c-1.974555 1.023843-4.022242 1.682029-5.996798 2.413345-5.119217 1.75516-11.116015 3.656584-18.063524 2.925267H589.880118a44.610324 44.610324 0 1 1 0-89.293779h281.556962L555.800756 490.767131a42.855164 42.855164 0 0 1 30.422778-73.20481c11.554805 0 22.23203 4.387901 30.349647 12.505517l318.04967 317.903406v-286.091126a44.610324 44.610324 0 1 1 89.220647 0V851.013779c0.219395 1.462634-0.219395 2.559609-0.365658 3.290926z"  horiz-adv-x="1024" />

    
    <glyph glyph-name="wankeicon-" unicode="&#59015;" d="M934.34311111 23.479182219999984c-12.1362963-49.95299555-55.09878518-86.37402075-105.97413926-86.37402074-47.22232889 0-87.44201482 30.95969185-102.74588444 75.57271704H301.73866667c-15.30386963-44.64943408-55.55996445-75.57271703-102.78229334-75.57271704-50.87535408 0-93.78929778 36.40888889-105.93773036 86.37402074-52.88997925 22.68273778-86.60461037 78.70388148-82.17486222 140.85385481l10.38866962 144.65251556c4.06565925 57.74449778 39.60073482 108.78976 90.50036148 132.58903704l45.72956445 225.48024889c16.73595259 82.44186075 95.71896889 149.50703408 176.09765925 149.50703407h360.22954667c80.37869037 0 159.34957037-67.04090075 176.06125037-149.50703407l45.72956444-225.48024889c50.89962667-23.78714075 86.43470222-74.84453925 90.53677038-132.58903704L1016.46942815 164.33303703c4.42974815-62.14997333-29.23633778-118.17111703-82.12631704-140.85385481zM828.36897185-62.89483852000001c-47.22232889 0-87.44201482 30.95969185-102.74588444 75.57271704H301.73866667c-15.30386963-44.64943408-55.55996445-75.57271703-102.78229334-75.57271704-50.87535408 0-93.78929778 36.40888889-105.93773036 86.37402074-52.88997925 22.69487408 894.21444741 22.69487408 841.32446814 0-12.1362963-49.95299555-55.11092148-86.37402075-105.97413926-86.37402074zM93.01864297 11.415703699999995q-82.17486222 58.44840297-82.17486222 146.76423112l10.38866962 155.19895703h983.84099555l11.40811853-155.19895703q0-89.50518518-82.13845334-146.71568593zM837.25274075 166.25057185000003a70.18420148 70.18420148 0 1 0 20.6317037 49.75881482 71.72551111 71.72551111 0 0 0-20.6317037-49.75881482zM779.36260741 424.04977778c-6.06814815-7.63373037-15.91068445-12.07561482-27.40375704-12.07561481H275.41504c-11.4566637 0-21.32347259 4.44188445-27.80425482 12.53679406-6.18951111 7.43954963-8.8352237 18.20444445-7.09973333 29.95237927 0.16990815 0.80099555 0.29127111 1.56558222 0.46117926 2.33016888l37.42833778 169.90814815c4.70888297 26.80907852 30.12228741 49.1641363 56.25173333 49.1641363h358.02074075c26.12944592 0 51.54285037-22.41573925 56.22746073-49.1641363l37.42833778-169.90814815c0.19418075-0.76458667 0.32768-1.52917333 0.46117927-2.33016888 1.73549037-11.68725333-0.88594963-22.48855703-7.42741334-30.41355852zM289.90577778 166.25057185000003a70.12352 70.12352 0 1 0 20.70452147 49.75881482 71.60414815 71.60414815 0 0 0-20.70452147-49.75881482z"  horiz-adv-x="1024" />

    
    <glyph glyph-name="cheweiguanli1" unicode="&#59098;" d="M1164.539912 703.903143a35.001981 35.001981 0 0 1-31.251769 25.493867h-119.400697l-98.490422 132.583262a58.222992 58.222992 0 0 1-39.774979 23.448296A3694.868207 3694.868207 0 0 1 303.39269 884.405783a58.488159 58.488159 0 0 1-39.81286-23.448297l-102.278516-130.424048H41.786975a34.9641 34.9641 0 0 1-31.251769-25.493867L0.11795 661.135571a8.864138 8.864138 0 0 1 7.576186-10.18997l67.238654-32.615483-27.463676-34.661052a142.470184 142.470184 0 0 1-24.622605-88.641381v-353.656379a26.062081 26.062081 0 0 1 24.622605-26.516652H231.191634a25.455986 25.455986 0 0 1 24.622605 26.516652v69.322105h663.181473v-69.322105a26.062081 26.062081 0 0 1 24.622606-26.516652h183.798281a25.455986 25.455986 0 0 1 24.660487 26.516652v353.656379a136.371354 136.371354 0 0 1-24.660487 88.641381l-27.463676 35.683837 67.276535 32.615483a9.583876 9.583876 0 0 1 7.576187 10.18997zM308.089925 449.153877a10.947589 10.947589 0 0 0-10.417256-11.36428l-163.910792 6.09883a47.237522 47.237522 0 0 0-43.563072 46.896594v35.683838a14.659921 14.659921 0 0 0 16.099396 17.311585l163.872911-21.402726a42.616048 42.616048 0 0 0 37.880932-41.669025v-31.592697zM183.954112 640.717749c-10.417256-2.007689-11.36428 6.136711-7.576187 12.235541L300.513739 815.007916a28.44858 28.44858 0 0 0 19.887489 12.235541 3276.246029 3276.246029 0 0 0 537.909231 0 26.516652 26.516652 0 0 0 19.925371-12.235541l124.097932-162.054626c3.788093-6.09883 2.84107-13.220445-7.576186-12.235541a6324.751897 6324.751897 0 0 1-810.803464 0z m905.733079-148.758419a46.517784 46.517784 0 0 0-43.600953-46.896594l-163.872911-6.09883a10.909708 10.909708 0 0 0-10.417256 11.36428V481.883002a43.411548 43.411548 0 0 0 37.880932 41.669025l163.910792 20.379941a15.682706 15.682706 0 0 0 16.099396-16.2888v-35.683838zM96.979492-127.734833h981.116134v95.914519h-981.116134v-95.914519z"  horiz-adv-x="1175" />

    
    <glyph glyph-name="xiangmu" unicode="&#58942;" d="M787.496429 345.008739H604.045743a53.053683 53.053683 0 0 1-53.053683-53.053683v-183.450686a236.50437 236.50437 0 1 1 236.504369 236.504369zM604.045743 422.991261h183.450686a236.50437 236.50437 0 1 1-236.504369 236.504369v-183.450686a53.053683 53.053683 0 0 1 53.053683-53.053683zM419.955855 345.008739H236.505169a236.50437 236.50437 0 1 1 236.504369-236.504369V291.955056a53.053683 53.053683 0 0 1-53.053683 53.053683zM236.505169 422.991261h183.450686a53.053683 53.053683 0 0 1 53.053683 53.053683V659.49563a236.50437 236.50437 0 1 1-236.504369-236.504369z"  horiz-adv-x="1025" />

    
    <glyph glyph-name="dianpuzhanshixinxi" unicode="&#58933;" d="M818.176 757.248h-610.816c-72.704 0-132.096-59.392-132.096-132.096v-463.872c0-72.704 59.392-132.096 132.096-132.096h610.816c72.704 0 130.048 59.392 130.048 132.096v463.872c0 72.704-57.344 132.096-130.048 132.096zM901.12 159.232c0-44.544-36.352-80.896-80.896-80.896h-614.912c-44.544 0-80.896 36.352-80.896 80.896v467.968c0 44.544 36.352 80.896 80.896 80.896h614.912c44.544 0 80.896-36.352 80.896-80.896v-467.968z m-129.024 89.088H245.76c-13.824 0-24.576-11.264-24.576-24.576 0-13.824 11.264-24.576 24.576-24.576h526.336c13.824 0 24.576 11.264 24.576 24.576 0.512 13.312-10.752 24.576-24.576 24.576z m-428.544 72.704c66.56 0 120.832 54.272 120.832 120.832 0 66.56-54.272 120.832-120.832 120.832s-120.832-54.272-120.832-120.832c0-66.56 54.272-120.832 120.832-120.832z m0 189.44c37.888 0 68.608-30.72 68.608-68.608s-30.72-68.608-68.608-68.608-68.608 30.72-68.608 68.608 30.72 68.608 68.608 68.608z m427.52-166.4c13.824 0 24.576 11.264 24.576 24.576 0 13.824-11.264 24.576-24.576 24.576h-210.944c-13.824 0-24.576-11.264-24.576-24.576 0-13.824 11.264-24.576 24.576-24.576h210.944z m3.072 218.624h-208.384c-13.312 0-24.576-10.752-24.576-24.576 0-13.312 10.752-24.576 24.576-24.576h208.384c13.312 0 24.576 10.752 24.576 24.576 0 13.824-11.264 24.576-24.576 24.576z"  horiz-adv-x="1024" />

    
    <glyph glyph-name="xingzhuang" unicode="&#58882;" d="M58.288128 24.4224a58.3168 58.3168 0 0 0-56.7808 71.3728l43.8784 191.232a153.6 153.6 0 0 0 39.9872 73.0112l419.4304 426.3424a41.6256 41.6256 0 0 0 29.4912 12.544 47.2576 47.2576 0 0 0 29.696-12.0832l194.56-191.6928a41.7792 41.7792 0 0 0 0.4608-59.0336l-416.4096-423.8848a152.8832 152.8832 0 0 0-75.264-42.0864L71.292928 25.6a59.2896 59.2896 0 0 0-13.0048-1.1776z m476.8256 673.536l-390.0416-396.4928a69.7344 69.7344 0 0 1-18.1248-33.1264l-34.9184-152.1152 156.5696 35.4816a68.864 68.864 0 0 1 34.0992 19.0464l387.2256 394.24z m193.8944-174.3872a41.8304 41.8304 0 0 0-29.1328 71.68l58.4704 56.6784a94.6688 94.6688 0 0 1-1.7408 133.12 93.2352 93.2352 0 0 1-67.2768 27.2896 94.464 94.464 0 0 1-66.8672-28.3136L563.632128 727.04a41.7792 41.7792 0 1 0-58.3168 59.8528l57.9072 56.32A176.6912 176.6912 0 0 0 688.662528 896a185.344 185.344 0 0 0 126.6176-51.2 178.4832 178.4832 0 0 0 1.9968-251.8016L758.192128 535.3984a41.6768 41.6768 0 0 0-29.184-11.8272zM982.704128-128H41.852928a41.7792 41.7792 0 1 0 0 83.5584h940.8512a41.7792 41.7792 0 1 0 0-83.5584z m0 206.6944H485.091328a41.7792 41.7792 0 1 0 0 83.5584h497.6128a41.7792 41.7792 0 1 0 0-83.5584z m-701.44-1.1264a41.8304 41.8304 0 0 0-39.7824 28.8768 233.1136 233.1136 0 0 1-159.0784 152.7808 41.7792 41.7792 0 1 0 22.5792 80.4864 316.5184 316.5184 0 0 0 216.064-207.4624 41.8304 41.8304 0 0 0-39.936-54.6816z"  horiz-adv-x="1024" />

    
    <glyph glyph-name="huabanx" unicode="&#58881;" d="M0 896h438.857143v-438.857143H0zM585.142857 896h438.857143v-438.857143H585.142857zM0 310.857143h438.857143v-438.857143H0zM585.142857 310.857143h438.857143v-438.857143H585.142857z"  horiz-adv-x="1024" />

    
    <glyph glyph-name="huodongguanli" unicode="&#59008;" d="M870.4-128H153.6c-42.496 0-76.8 34.304-76.8 76.8v409.6c0 42.496 34.304 76.8 76.8 76.8h716.8c42.496 0 76.8-34.304 76.8-76.8v-409.6c0-42.496-34.304-76.8-76.8-76.8zM153.6 384c-14.336 0-25.6-11.264-25.6-25.6v-409.6c0-14.336 11.264-25.6 25.6-25.6h716.8c14.336 0 25.6 11.264 25.6 25.6v409.6c0 14.336-11.264 25.6-25.6 25.6H153.6zM524.8-113.152h-25.6c-7.168 0-12.8 5.632-12.8 12.8V665.088c0 7.168 5.632 12.8 12.8 12.8h25.6c7.168 0 12.8-5.632 12.8-12.8v-765.44c0-7.168-5.632-12.8-12.8-12.8zM947.2 691.2h-75.264c27.648 58.88 27.136 118.272-6.656 158.72-27.648 33.28-73.216 47.104-127.488 39.424-49.664-7.168-102.4-31.744-147.968-70.144-33.792-28.672-60.416-60.928-77.824-94.208-17.92 33.792-45.056 66.56-77.824 94.208C389.12 857.6 336.384 882.688 286.72 889.856 232.448 897.024 186.88 883.2 159.232 849.92s-33.792-80.384-16.896-132.096c3.072-8.704 6.144-17.92 10.24-26.624H76.8C34.304 691.2 0 656.896 0 614.4v-153.6c0-42.496 34.304-76.8 76.8-76.8h870.4c42.496 0 76.8 34.304 76.8 76.8V614.4c0 42.496-34.304 76.8-76.8 76.8z m-324.096 89.088c38.4 32.256 81.408 52.736 122.368 58.88 7.168 1.024 14.336 1.536 20.48 1.536 26.624 0 47.616-8.192 60.416-23.552 24.064-28.672 16.896-77.824-12.288-125.952h-261.12c14.336 30.72 38.4 62.464 70.144 89.088z m-432.128-46.592c-11.264 34.816-8.704 64.512 7.68 83.456 12.8 15.36 33.792 23.552 60.416 23.552 6.656 0 13.312-0.512 20.48-1.536 40.448-5.632 83.968-26.624 122.368-58.88 31.232-26.112 55.808-57.344 70.656-89.088H210.944c-8.704 13.824-15.36 28.16-19.968 42.496zM972.8 460.8c0-14.336-11.264-25.6-25.6-25.6H76.8c-14.336 0-25.6 11.264-25.6 25.6V614.4c0 14.336 11.264 25.6 25.6 25.6h870.4c14.336 0 25.6-11.264 25.6-25.6v-153.6zM947.2 691.2h-75.264c27.648 58.88 27.136 118.272-6.656 158.72-27.648 33.28-73.216 47.104-127.488 39.424-49.664-7.168-102.4-31.744-147.968-70.144-33.792-28.672-60.416-60.928-77.824-94.208-17.92 33.792-45.056 66.56-77.824 94.208C389.12 857.6 336.384 882.688 286.72 889.856 232.448 897.024 186.88 883.2 159.232 849.92c-27.648-33.28-33.792-80.384-16.896-132.096 3.072-8.704 6.144-17.92 10.24-26.624H76.8C34.304 691.2 0 656.896 0 614.4v-153.6c0-42.496 34.304-76.8 76.8-76.8h4.608c-3.072-8.192-4.608-16.384-4.608-25.6v-409.6c0-42.496 34.304-76.8 76.8-76.8h716.8c42.496 0 76.8 34.304 76.8 76.8v409.6c0 9.216-1.536 17.408-4.608 25.6h4.608c42.496 0 76.8 34.304 76.8 76.8V614.4c0 42.496-34.304 76.8-76.8 76.8z m-324.096 89.088c38.4 32.256 81.408 52.736 122.368 58.88 7.168 1.024 14.336 1.536 20.48 1.536 26.624 0 47.616-8.192 60.416-23.552 24.064-28.672 16.896-77.824-12.288-125.952h-261.12c14.336 30.72 38.4 62.464 70.144 89.088z m-424.448 36.864c12.8 15.36 33.792 23.552 60.416 23.552 6.656 0 13.312-0.512 20.48-1.536 40.448-5.632 83.968-26.624 122.368-58.88 31.232-26.112 55.808-57.344 70.656-89.088H210.944c-8.704 13.824-15.36 28.16-19.968 42.496-11.264 34.816-8.704 64.512 7.68 83.456zM51.2 460.8V614.4c0 14.336 11.264 25.6 25.6 25.6h409.6v-204.8H76.8c-14.336 0-25.6 11.264-25.6 25.6z m76.8-512v409.6c0 14.336 11.264 25.6 25.6 25.6h332.8v-460.8H153.6c-14.336 0-25.6 11.264-25.6 25.6z m768 409.6v-409.6c0-14.336-11.264-25.6-25.6-25.6h-332.8v460.8h332.8c14.336 0 25.6-11.264 25.6-25.6z m76.8 102.4c0-14.336-11.264-25.6-25.6-25.6h-409.6V640h409.6c14.336 0 25.6-11.264 25.6-25.6v-153.6z"  horiz-adv-x="1024" />

    
    <glyph glyph-name="kehuguanli-copy" unicode="&#58883;" d="M187.392-18.94399999999996c-14.848 0-26.624 11.776-26.624 26.624v71.68c0 142.848 86.528 269.824 221.184 323.072l15.36 6.144-12.8 10.24C334.336 458.24 305.152 517.12 305.152 580.096c0 113.152 92.672 205.312 206.336 205.312s206.336-92.16 206.336-205.312c0-62.976-28.672-121.856-79.36-161.28l-12.8-10.24 15.36-6.144c134.144-53.248 221.184-180.224 221.184-323.072v-71.68c0-14.336-11.776-26.624-26.624-26.624H187.392z m324.096 393.728c-163.84 0-297.472-132.608-297.472-295.424v-45.056H808.96v45.056c-0.512 162.816-133.632 295.424-297.472 295.424z m0 357.376c-84.48 0-153.6-68.608-153.6-152.576s68.608-152.576 153.6-152.576c84.48 0 153.6 68.608 153.6 152.576S595.968 732.16 511.488 732.16zM43.52 88.57600000000002c-14.848 0-26.624 11.776-26.624 26.624v55.296c0 103.936 57.344 198.144 150.016 245.248l10.752 5.632L168.96 430.08c-28.672 31.232-44.544 71.68-44.544 113.664 0 89.6 72.192 164.864 162.304 169.472-14.336-18.944-24.576-38.912-32.256-60.928-45.568-15.872-76.8-59.904-76.8-108.544 0-45.568 27.136-87.04 69.12-105.984 11.776-4.608 18.944-13.824 18.944-24.576 0-10.752-7.68-20.992-19.456-24.576l-6.144-1.536c-100.352-25.088-169.984-114.176-169.984-217.088v-28.672h33.792c-3.072-17.408-4.608-35.328-5.12-52.736H43.52z m880.128 0c-0.512 17.408-2.048 35.328-5.12 52.736h33.792v28.672c0 102.4-70.144 192-169.984 217.088l-7.168 1.536c-10.752 3.584-18.432 13.824-18.432 24.576 0 10.752 7.168 19.968 18.432 24.576 42.496 18.944 69.632 60.928 69.632 106.496 0 48.64-31.232 92.672-77.824 109.568-6.656 20.992-17.408 41.472-31.232 59.904 89.6-4.096 162.304-79.36 162.304-169.472 0-41.984-15.872-82.432-44.544-113.664l-8.192-9.216 10.752-5.632c92.16-47.616 149.504-141.312 149.504-245.248v-55.296c0-14.336-11.776-26.624-26.624-26.624h-55.296z"  horiz-adv-x="1024" />

    
    <glyph glyph-name="dingdanguanli" unicode="&#59303;" d="M1024-128H0V768h1024v-896zM128 0h768V640H128v-640zM0 512h1024v-128H0zM256 896h128v-256H256zM640 896h128v-256h-128z"  horiz-adv-x="1024" />

    
    <glyph glyph-name="dengbisuofang" unicode="&#59027;" d="M245.36 650.64H778.72V117.28H245.36V650.64zM352 544v-320h320V544H352zM298.64 757.36h-160v-160H32V810.64A53.296 53.296 0 0 0 85.36 864H298.72v-106.64h-0.08z m0-746.72h-160v160H32V-42.72A53.28 53.28 0 0 1 85.36-96H298.72v106.64h-0.08z m426.72 746.72h160v-160H992V810.64A53.28 53.28 0 0 1 938.64 864h-213.28v-106.64z m0-746.72h160v160H992V-42.72A53.28 53.28 0 0 0 938.64-96h-213.28v106.64z"  horiz-adv-x="1024" />

    
    <glyph glyph-name="shezhi" unicode="&#58891;" d="M942.08 376.32c0 33.28-2.56 61.44-10.24 81.92 2.56 20.48-10.24 35.84-30.72 40.96h-2.56c-35.84 7.68-61.44 25.6-81.92 61.44-17.92 30.72-23.04 66.56-10.24 99.84 7.68 15.36 2.56 35.84-12.8 48.64-38.4 35.84-87.04 64-140.8 81.92-15.36 7.68-35.84 2.56-48.64-12.8-23.04-28.16-56.32-43.52-94.72-43.52-33.28 0-66.56 15.36-94.72 43.52-17.92 17.92-35.84 15.36-48.64 12.8-56.32-20.48-99.84-46.08-135.68-79.36-17.92-10.24-23.04-30.72-15.36-46.08 10.24-38.4 7.68-74.24-10.24-104.96-15.36-30.72-46.08-51.2-81.92-61.44-2.56 0-5.12 0-5.12-2.56-12.8-7.68-23.04-17.92-25.6-30.72v-2.56c-5.12-28.16-10.24-53.76-10.24-84.48 0-33.28 2.56-61.44 10.24-81.92-2.56-15.36 5.12-30.72 28.16-40.96h2.56c35.84-7.68 61.44-25.6 81.92-61.44 17.92-30.72 23.04-66.56 10.24-99.84-7.68-15.36-2.56-35.84 12.8-48.64 35.84-33.28 84.48-64 140.8-84.48h2.56c2.56 0 2.56-2.56 5.12-2.56h5.12c12.8 0 25.6 5.12 35.84 15.36 23.04 28.16 56.32 43.52 94.72 43.52 33.28 0 66.56-15.36 94.72-43.52 10.24-10.24 20.48-15.36 33.28-15.36 5.12 0 12.8 0 17.92 2.56 58.88 23.04 99.84 48.64 138.24 81.92 15.36 10.24 23.04 30.72 15.36 46.08-10.24 38.4-7.68 74.24 10.24 104.96 15.36 30.72 46.08 51.2 81.92 61.44 2.56 0 5.12 0 5.12 2.56 12.8 7.68 23.04 17.92 25.6 30.72v2.56c5.12 28.16 7.68 56.32 7.68 84.48zM140.8 450.56c48.64 12.8 89.6 43.52 112.64 84.48 23.04 43.52 30.72 92.16 17.92 140.8 33.28 28.16 71.68 51.2 117.76 69.12 38.4-35.84 81.92-56.32 130.56-56.32 51.2 0 99.84 20.48 130.56 56.32 43.52-15.36 81.92-38.4 115.2-69.12-12.8-51.2-7.68-99.84 17.92-140.8 23.04-43.52 61.44-74.24 110.08-87.04 5.12-20.48 7.68-46.08 7.68-71.68 0-20.48-2.56-40.96-7.68-69.12-51.2-15.36-89.6-46.08-110.08-87.04-23.04-43.52-30.72-92.16-17.92-140.8-33.28-28.16-71.68-51.2-117.76-69.12-38.4 35.84-84.48 53.76-130.56 53.76-51.2 0-97.28-20.48-130.56-56.32-43.52 15.36-81.92 38.4-115.2 69.12 12.8 51.2 7.68 99.84-17.92 140.8-23.04 43.52-61.44 74.24-110.08 87.04-5.12 20.48-7.68 48.64-7.68 71.68-2.56 25.6 0 46.08 5.12 74.24zM670.72 432.64c-5.12 12.8-17.92 20.48-30.72 17.92-12.8-5.12-20.48-20.48-15.36-33.28 7.68-20.48 7.68-46.08 0-74.24-10.24-28.16-30.72-51.2-56.32-66.56-28.16-12.8-58.88-15.36-87.04-5.12-28.16 10.24-51.2 30.72-66.56 56.32-12.8 28.16-15.36 58.88-5.12 87.04 10.24 28.16 30.72 51.2 56.32 66.56 28.16 12.8 58.88 15.36 87.04 5.12 12.8-5.12 28.16 2.56 33.28 15.36 5.12 12.8-2.56 28.16-15.36 33.28-40.96 15.36-87.04 12.8-128-7.68s-71.68-53.76-84.48-94.72c-15.36-40.96-12.8-87.04 7.68-128s53.76-71.68 94.72-84.48c15.36-5.12 35.84-10.24 53.76-10.24 71.68 0 133.12 46.08 156.16 112.64 10.24 38.4 10.24 74.24 0 110.08z"  horiz-adv-x="1024" />

    
    <glyph glyph-name="xiangmuguanli1" unicode="&#59047;" d="M540.458667 640h-341.333334a28.458667 28.458667 0 0 1-0.085333-56.874667h342.229333A28.458667 28.458667 0 1 1 540.416 640z m113.749333-56.874667h85.333333V640h-85.333333v-56.874667z m85.333333 199.082667H170.666667a170.666667 170.666667 0 0 1-170.666667-170.666667v-512a170.666667 170.666667 0 0 1 170.666667-170.666666h568.917333a170.666667 170.666667 0 0 1 170.666667 170.666666v512a170.666667 170.666667 0 0 1-170.666667 170.666667z m113.792-682.666667a113.792 113.792 0 0 0-113.792-113.792H170.666667a113.792 113.792 0 0 0-113.792 113.792V469.333333H853.333333v-369.792z m0 426.666667H56.874667v85.333333A113.792 113.792 0 0 0 170.666667 725.333333h568.917333A113.792 113.792 0 0 0 853.333333 611.541333v-85.333333zM796.458667 896H341.333333C267.648 896 202.837333 860.501333 161.365333 806.144A166.4 166.4 0 0 0 200.149333 810.666667h48a166.101333 166.101333 0 0 0 93.312 28.416h454.997334a170.666667 170.666667 0 0 0 170.666666-170.666667v-398.208a167.381333 167.381333 0 0 0-29.013333-93.994667L938.666667 128c0-13.312-1.877333-26.154667-4.778667-38.570667A226.56 226.56 0 0 1 1024 270.208V668.458667A227.541333 227.541333 0 0 1 796.458667 896z"  horiz-adv-x="1024" />

    
    <glyph glyph-name="zhanghao" unicode="&#58952;" d="M638.0032 327.2704c75.6224 44.1344 126.0544 126.0544 126.0544 214.272A252.8256 252.8256 0 0 1 512 793.6C373.3504 793.6 259.9424 686.4896 259.9424 547.84c0-94.5152 50.432-170.1376 126.0032-214.272-163.84-50.3808-277.248-201.6256-283.5456-378.0608 0-25.2416 12.5952-37.8368 31.488-37.8368 18.944 0 31.5392 12.5952 31.5392 31.5392 6.2976 189.0304 157.5424 340.2752 346.5728 340.2752s340.2752-151.2448 346.624-340.2752c0-18.944 12.544-31.5392 31.488-31.5392 18.8928 0 31.488 12.5952 31.488 31.5392-6.2976 176.4352-119.7568 327.68-283.5968 378.0608zM322.9696 547.84c0 107.1104 81.92 189.0304 189.0304 189.0304s189.0304-81.92 189.0304-189.0304-81.92-189.0304-189.0304-189.0304-189.0304 81.92-189.0304 189.0304z"  horiz-adv-x="1024" />

    
    <glyph glyph-name="caiwubaobiao" unicode="&#58901;" d="M64.120225-128c-35.394364 0-64.120225 70.852849-64.120225 104.708328V773.402129a64.120225 64.120225 0 0 0 128.240451 0V0.240451h833.56293a64.120225 64.120225 0 1 0 0-128.240451z m705.32248 192.360676v320.601127h128.240451v-320.601127z m-256.480902 0v448.841578h128.240451v-448.841578z m-256.480901 0v384.721353h128.240451v-384.721353z m531.556668 416.781466L546.17608 741.919098 344.582091 540.196869c-56.81052-43.601753-137.024922 53.283907-80.086161 96.821541l256.480902 245.323982a65.979712 65.979712 0 0 0 93.615529-14.10645L833.56293 641.442705l64.120226 128.240451c42.383469 54.438071 133.241828 25.006888 128.240451-64.120226l-132.921228-227.113838a68.031559 68.031559 0 0 0-52.193863-30.392987 65.915592 65.915592 0 0 0-52.770946 33.086037z"  horiz-adv-x="1026" />

    


  </font>
</defs>
</svg>
